<svg width="256" height="256" viewBox="0 0 256 256" fill="none" xmlns="http://www.w3.org/2000/svg">
  <circle cx="128" cy="128" r="88" fill="#FF6938"/>
  <path d="M86 184.5V72H128.2C154.6 72 171 85.2 171 106.7C171 122.7 161.7 133.8 145.7 137.4L176.8 184.5H147.6L121.2 141.7H111.6V184.5H86ZM111.6 121.8H127.8C139.8 121.8 146.9 116.3 146.9 106.9C146.9 97.6 139.8 92 127.8 92H111.6V121.8Z" fill="#0D3A92"/>
  <path d="M83 186V70.5H125.2C151.8 70.5 168.5 83.8 168.5 105.8C168.5 121.7 159.2 132.9 143.2 136.7L174.2 183.7" stroke="#1A57C8" stroke-width="5.5" stroke-linecap="round" stroke-linejoin="round"/>
</svg>
